<svg width="138" height="40" viewBox="0 0 138 40" fill="none" xmlns="http://www.w3.org/2000/svg">
<rect width="138" height="40" rx="20" fill="white"/>
<path d="M25.612 19.7234V21.4314H28.58C28.202 22.6774 27.25 23.2934 25.724 23.2934C24.702 23.2934 23.89 22.9994 23.288 22.3974C22.686 21.7954 22.378 21.0254 22.378 20.1014C22.378 19.1634 22.672 18.3934 23.274 17.7914C23.876 17.1754 24.646 16.8674 25.584 16.8674C26.158 16.8674 26.676 16.9934 27.166 17.2454C27.628 17.4974 27.978 17.8194 28.216 18.2254L29.868 17.2734C29.434 16.5734 28.846 16.0134 28.104 15.6074C27.334 15.2014 26.508 14.9914 25.598 14.9914C24.142 14.9914 22.924 15.4814 21.93 16.4754C20.95 17.4694 20.46 18.6734 20.46 20.1014C20.46 21.5154 20.95 22.7194 21.944 23.7134C22.938 24.6934 24.198 25.1834 25.71 25.1834C27.124 25.1834 28.286 24.7494 29.182 23.8814C30.078 23.0134 30.526 21.8794 30.526 20.4794V19.7234H25.612ZM33.8322 20.9414H37.5422V19.1214H33.8322V17.0354H37.8922V15.1874H31.9002V24.9874H37.9622V23.1394H33.8322V20.9414ZM38.5961 15.1874V17.0354H41.2281V24.9874H43.1601V17.0354H45.8061V15.1874H38.5961ZM51.2806 24.5394C51.9526 24.9734 52.7646 25.1834 53.7306 25.1834C54.7806 25.1834 55.6346 24.9174 56.2926 24.3854C56.9506 23.8534 57.2866 23.1394 57.2866 22.2294C57.2866 21.6974 57.1606 21.2354 56.9226 20.8434C56.8386 20.6894 56.6986 20.5354 56.5026 20.3534C56.3486 20.2134 56.1806 20.0874 55.9986 19.9754C55.8726 19.8774 55.6626 19.7794 55.3826 19.6814C55.0886 19.5554 54.8786 19.4854 54.7526 19.4434L54.0806 19.2194C53.3666 19.0094 52.8766 18.7994 52.5966 18.6034C52.3446 18.4074 52.2186 18.1554 52.2186 17.8474C52.2186 17.5534 52.3306 17.3294 52.5686 17.1474C52.8066 16.9654 53.1146 16.8674 53.5066 16.8674C54.3606 16.8674 54.9906 17.2874 55.3826 18.1274L57.0066 17.1894C56.2926 15.7194 55.1306 14.9914 53.5066 14.9914C52.6246 14.9914 51.8546 15.2574 51.2246 15.7894C50.5946 16.3074 50.2866 17.0074 50.2866 17.9034C50.2866 18.7854 50.5946 19.4574 51.2106 19.9194C51.7006 20.2694 52.3866 20.5634 53.2406 20.8294C54.0386 21.0534 54.5846 21.2634 54.8926 21.4594C55.2006 21.6414 55.3546 21.9074 55.3546 22.2574C55.3546 22.9434 54.8366 23.2934 53.7866 23.2934C52.6666 23.2934 51.9106 22.7894 51.5326 21.7954L49.8806 22.7614C50.1606 23.5174 50.6226 24.1054 51.2806 24.5394ZM57.4633 15.1874V17.0354H60.0953V24.9874H62.0273V17.0354H64.6732V15.1874H57.4633ZM73.4409 24.9874L69.9969 15.1874H67.6029L64.1729 24.9874H66.2589L66.8469 23.2234H70.7529L71.3409 24.9874H73.4409ZM68.8069 17.4134L70.1509 21.4174H67.4629L68.8069 17.4134ZM81.8544 24.9874L79.6844 21.2914C80.2584 21.0254 80.7064 20.6474 81.0564 20.1294C81.4064 19.6114 81.5744 19.0374 81.5744 18.4354C81.5744 17.5394 81.2524 16.7694 80.6224 16.1394C79.9924 15.5094 79.2224 15.1874 78.3124 15.1874H74.3924V24.9874H76.3244V21.5854H77.7944L79.7684 24.9874H81.8544ZM78.3124 16.9934C78.6764 16.9934 78.9844 17.1334 79.2504 17.4134C79.5164 17.6934 79.6424 18.0294 79.6424 18.4354C79.6424 18.8414 79.5164 19.1774 79.2504 19.4574C78.9844 19.7514 78.6764 19.8914 78.3124 19.8914H76.3244V16.9934H78.3124ZM82.059 15.1874V17.0354H84.691V24.9874H86.623V17.0354H89.269V15.1874H82.059ZM92.2795 20.9414H95.9895V19.1214H92.2795V17.0354H96.3395V15.1874H90.3475V24.9874H96.4095V23.1394H92.2795V20.9414ZM97.7713 15.1874V24.9874H101.663C103.007 24.9874 104.127 24.5114 105.023 23.5734C105.933 22.6354 106.381 21.4734 106.381 20.0874C106.381 18.7014 105.933 17.5394 105.023 16.6014C104.127 15.6634 103.007 15.1874 101.663 15.1874H97.7713ZM99.7033 23.1394V17.0354H101.663C102.517 17.0354 103.203 17.3154 103.735 17.8894C104.267 18.4494 104.533 19.1774 104.533 20.0874C104.533 20.9834 104.267 21.7254 103.735 22.2994C103.203 22.8594 102.517 23.1394 101.663 23.1394H99.7033Z" fill="#504883"/>
</svg>
