<svg width="24" height="24" viewBox="0 0 24 24" fill="none" xmlns="http://www.w3.org/2000/svg">
<path d="M23.5 12C23.5 18.3513 18.3513 23.5 12 23.5C5.64873 23.5 0.5 18.3513 0.5 12C0.5 5.64873 5.64873 0.5 12 0.5C18.3513 0.5 23.5 5.64873 23.5 12Z" stroke="#F2F2F2"/>
<path d="M14.144 12.3196H9.18396V10.0156H14.528L14.144 12.3196Z" fill="#F2F2F2"/>
<path d="M10.336 8.51201C10.336 8.80001 10.336 17.632 10.336 17.632H12.608C12.608 17.632 12.608 9.05601 12.608 8.86401C12.608 8.60801 12.736 8.48001 12.992 8.48001C13.504 8.48001 14.016 8.48001 14.528 8.48001C14.528 8.19201 14.528 7.07201 14.528 6.20801C13.856 6.20801 13.12 6.20801 12.768 6.20801C10.304 6.20801 10.336 8.22401 10.336 8.51201Z" fill="#F2F2F2"/>
</svg>
