<svg width="138" height="40" viewBox="0 0 138 40" fill="none" xmlns="http://www.w3.org/2000/svg">
<rect width="138" height="40" rx="20" fill="url(#paint0_linear)"/>
<path d="M31.234 19.7234V21.4314H34.202C33.824 22.6774 32.872 23.2934 31.346 23.2934C30.324 23.2934 29.512 22.9994 28.91 22.3974C28.308 21.7954 28 21.0254 28 20.1014C28 19.1634 28.294 18.3934 28.896 17.7914C29.498 17.1754 30.268 16.8674 31.206 16.8674C31.78 16.8674 32.298 16.9934 32.788 17.2454C33.25 17.4974 33.6 17.8194 33.838 18.2254L35.49 17.2734C35.056 16.5734 34.468 16.0134 33.726 15.6074C32.956 15.2014 32.13 14.9914 31.22 14.9914C29.764 14.9914 28.546 15.4814 27.552 16.4754C26.572 17.4694 26.082 18.6734 26.082 20.1014C26.082 21.5154 26.572 22.7194 27.566 23.7134C28.56 24.6934 29.82 25.1834 31.332 25.1834C32.746 25.1834 33.908 24.7494 34.804 23.8814C35.7 23.0134 36.148 21.8794 36.148 20.4794V19.7234H31.234ZM39.4542 20.9414H43.1642V19.1214H39.4542V17.0354H43.5142V15.1874H37.5222V24.9874H43.5842V23.1394H39.4542V20.9414ZM44.218 15.1874V17.0354H46.85V24.9874H48.782V17.0354H51.428V15.1874H44.218ZM56.9026 24.5394C57.5746 24.9734 58.3866 25.1834 59.3526 25.1834C60.4026 25.1834 61.2566 24.9174 61.9146 24.3854C62.5726 23.8534 62.9086 23.1394 62.9086 22.2294C62.9086 21.6974 62.7826 21.2354 62.5446 20.8434C62.4606 20.6894 62.3206 20.5354 62.1246 20.3534C61.9706 20.2134 61.8026 20.0874 61.6206 19.9754C61.4946 19.8774 61.2846 19.7794 61.0046 19.6814C60.7106 19.5554 60.5006 19.4854 60.3746 19.4434L59.7026 19.2194C58.9886 19.0094 58.4986 18.7994 58.2186 18.6034C57.9666 18.4074 57.8406 18.1554 57.8406 17.8474C57.8406 17.5534 57.9526 17.3294 58.1906 17.1474C58.4286 16.9654 58.7366 16.8674 59.1286 16.8674C59.9826 16.8674 60.6126 17.2874 61.0046 18.1274L62.6286 17.1894C61.9146 15.7194 60.7526 14.9914 59.1286 14.9914C58.2466 14.9914 57.4766 15.2574 56.8466 15.7894C56.2166 16.3074 55.9086 17.0074 55.9086 17.9034C55.9086 18.7854 56.2166 19.4574 56.8326 19.9194C57.3226 20.2694 58.0086 20.5634 58.8626 20.8294C59.6606 21.0534 60.2066 21.2634 60.5146 21.4594C60.8226 21.6414 60.9766 21.9074 60.9766 22.2574C60.9766 22.9434 60.4586 23.2934 59.4086 23.2934C58.2886 23.2934 57.5326 22.7894 57.1546 21.7954L55.5026 22.7614C55.7826 23.5174 56.2446 24.1054 56.9026 24.5394ZM63.0852 15.1874V17.0354H65.7172V24.9874H67.6492V17.0354H70.2952V15.1874H63.0852ZM79.0628 24.9874L75.6188 15.1874H73.2248L69.7948 24.9874H71.8808L72.4688 23.2234H76.3748L76.9628 24.9874H79.0628ZM74.4288 17.4134L75.7728 21.4174H73.0848L74.4288 17.4134ZM87.4764 24.9874L85.3064 21.2914C85.8804 21.0254 86.3284 20.6474 86.6784 20.1294C87.0284 19.6114 87.1964 19.0374 87.1964 18.4354C87.1964 17.5394 86.8744 16.7694 86.2444 16.1394C85.6144 15.5094 84.8444 15.1874 83.9344 15.1874H80.0144V24.9874H81.9464V21.5854H83.4164L85.3904 24.9874H87.4764ZM83.9344 16.9934C84.2984 16.9934 84.6064 17.1334 84.8724 17.4134C85.1384 17.6934 85.2644 18.0294 85.2644 18.4354C85.2644 18.8414 85.1384 19.1774 84.8724 19.4574C84.6064 19.7514 84.2984 19.8914 83.9344 19.8914H81.9464V16.9934H83.9344ZM87.6809 15.1874V17.0354H90.3129V24.9874H92.2449V17.0354H94.8909V15.1874H87.6809ZM97.9014 20.9414H101.611V19.1214H97.9014V17.0354H101.961V15.1874H95.9694V24.9874H102.031V23.1394H97.9014V20.9414ZM103.393 15.1874V24.9874H107.285C108.629 24.9874 109.749 24.5114 110.645 23.5734C111.555 22.6354 112.003 21.4734 112.003 20.0874C112.003 18.7014 111.555 17.5394 110.645 16.6014C109.749 15.6634 108.629 15.1874 107.285 15.1874H103.393ZM105.325 23.1394V17.0354H107.285C108.139 17.0354 108.825 17.3154 109.357 17.8894C109.889 18.4494 110.155 19.1774 110.155 20.0874C110.155 20.9834 109.889 21.7254 109.357 22.2994C108.825 22.8594 108.139 23.1394 107.285 23.1394H105.325Z" fill="white"/>
<defs>
<linearGradient id="paint0_linear" x1="17.9359" y1="35.2745" x2="33.3402" y2="-19.1852" gradientUnits="userSpaceOnUse">
<stop stop-color="#8B83E6"/>
<stop offset="1" stop-color="#F6BAEE"/>
</linearGradient>
</defs>
</svg>
