<svg width="24" height="24" viewBox="0 0 24 24" fill="none" xmlns="http://www.w3.org/2000/svg">
<path d="M23.5 12C23.5 18.3513 18.3513 23.5 12 23.5C5.64873 23.5 0.5 18.3513 0.5 12C0.5 5.64873 5.64873 0.5 12 0.5C18.3513 0.5 23.5 5.64873 23.5 12Z" stroke="#F2F2F2"/>
<path d="M17.7281 7.87191C17.2481 8.15991 16.7361 8.35191 16.1921 8.47991C15.7441 7.99991 15.1361 7.71191 14.4321 7.71191C13.0881 7.71191 12.0321 8.83191 12.0321 10.1759C12.0321 10.3679 12.0641 10.5599 12.0961 10.7519C10.0801 10.6559 8.32008 9.66391 7.13608 8.15991C6.94408 8.51191 6.81608 8.95991 6.81608 9.40791C6.81608 10.2719 7.23208 11.0079 7.87208 11.4559C7.48808 11.4559 7.10408 11.3279 6.78408 11.1359V11.1679C6.78408 12.3519 7.61608 13.3759 8.70408 13.5999C8.51208 13.6639 8.28808 13.6959 8.06408 13.6959C7.90408 13.6959 7.74408 13.6959 7.61608 13.6639C7.93608 14.6559 8.80008 15.3599 9.85608 15.3919C9.02408 16.0639 8.00008 16.4479 6.88008 16.4479C6.68808 16.4479 6.49608 16.4479 6.30408 16.4159C7.36008 17.1199 8.64008 17.5359 9.98408 17.5359C14.4001 17.5359 16.8321 13.7599 16.8321 10.5279C16.8321 10.4319 16.8321 10.3039 16.8321 10.2079C17.3121 9.85591 17.6961 9.43991 18.0481 8.92791C17.6321 9.11991 17.1521 9.24791 16.6721 9.31191C17.1521 8.92791 17.5361 8.44791 17.7281 7.87191Z" fill="#F2F2F2"/>
</svg>
