<svg width="24" height="24" viewBox="0 0 24 24" fill="none" xmlns="http://www.w3.org/2000/svg">
<path d="M23.5 12C23.5 18.3513 18.3513 23.5 12 23.5C5.64873 23.5 0.5 18.3513 0.5 12C0.5 5.64873 5.64873 0.5 12 0.5C18.3513 0.5 23.5 5.64873 23.5 12Z" stroke="#F2F2F2"/>
<path d="M14.4 6.49609H9.24804C7.68004 6.49609 6.36804 7.80809 6.36804 9.44009V14.4641C6.36804 16.0641 7.64804 17.4081 9.24804 17.4081H14.4C15.968 17.4081 17.28 16.0961 17.28 14.4641V9.40809C17.28 7.80809 15.968 6.49609 14.4 6.49609ZM16.288 14.3681C16.288 15.4881 15.392 16.3841 14.304 16.3841H9.34405C8.25605 16.3841 7.36004 15.4561 7.36004 14.3681V9.50409C7.36004 8.38409 8.25605 7.48809 9.34405 7.48809H14.304C15.392 7.48809 16.288 8.41609 16.288 9.50409V14.3681Z" fill="#F2F2F2"/>
<path d="M11.8401 9.15186C10.3361 9.15186 9.12012 10.3999 9.12012 11.9359C9.12012 13.4719 10.3361 14.7199 11.8401 14.7199C13.3441 14.7199 14.5601 13.4719 14.5601 11.9359C14.5601 10.3999 13.3441 9.15186 11.8401 9.15186ZM11.8401 13.7279C10.8801 13.7279 10.0801 12.9279 10.0801 11.9359C10.0801 10.9439 10.8801 10.1439 11.8401 10.1439C12.8001 10.1439 13.6001 10.9439 13.6001 11.9359C13.6001 12.9279 12.8001 13.7279 11.8401 13.7279Z" fill="#F2F2F2"/>
<path d="M14.7202 9.63205C15.056 9.63205 15.3282 9.34551 15.3282 8.99205C15.3282 8.63859 15.056 8.35205 14.7202 8.35205C14.3844 8.35205 14.1122 8.63859 14.1122 8.99205C14.1122 9.34551 14.3844 9.63205 14.7202 9.63205Z" fill="#F2F2F2"/>
</svg>
