<svg width="24" height="24" viewBox="0 0 24 24" fill="none" xmlns="http://www.w3.org/2000/svg">
<path d="M23.5 12C23.5 18.3513 18.3513 23.5 12 23.5C5.64873 23.5 0.5 18.3513 0.5 12C0.5 5.64873 5.64873 0.5 12 0.5C18.3513 0.5 23.5 5.64873 23.5 12Z" stroke="#F2F2F2"/>
<path d="M15.0079 11.3602H12.7039C12.7359 11.5522 12.7679 11.7442 12.7679 11.9362C12.7679 13.5042 11.4879 14.7842 9.91991 14.7842C8.35191 14.7842 7.07191 13.5042 7.07191 11.9362C7.07191 10.3682 8.35191 9.08818 9.91991 9.08818C10.5599 9.08818 11.1359 9.31218 11.6159 9.66418L13.2479 8.03218C12.3519 7.26418 11.1679 6.78418 9.91991 6.78418C7.07191 6.78418 4.83191 9.08818 4.83191 11.9362C4.83191 14.7842 7.07191 17.0882 9.91991 17.0882C12.7679 17.0882 15.0719 14.7842 15.0719 11.9362C15.0399 11.7442 15.0079 11.5522 15.0079 11.3602Z" fill="#F2F2F2"/>
<path d="M20.768 11.3599H16.192V12.5119H20.768V11.3599Z" fill="#F2F2F2"/>
<path d="M17.895 9.62663V14.2026H19.047V9.62663H17.895Z" fill="#F2F2F2"/>
<path d="M14.4641 12.5122L15.0401 11.9362V10.7842H9.88806V13.0882H14.2081C14.3361 12.8002 14.4641 12.5122 14.4641 12.5122Z" fill="#F2F2F2"/>
</svg>
