<svg width="432" height="470" viewBox="0 0 432 470" fill="none" xmlns="http://www.w3.org/2000/svg">
<rect width="432" height="470" fill="#F5F4F9"/>
<path fill-rule="evenodd" clip-rule="evenodd" d="M198.71 213.253C196.801 213.253 195.253 214.801 195.253 216.71V252.29C195.253 254.199 196.801 255.747 198.71 255.747H234.29C236.199 255.747 237.747 254.199 237.747 252.29V216.71C237.747 214.801 236.199 213.253 234.29 213.253H198.71ZM192 216.71C192 213.004 195.004 210 198.71 210H234.29C237.996 210 241 213.004 241 216.71V252.29C241 255.996 237.996 259 234.29 259H198.71C195.004 259 192 255.996 192 252.29V216.71Z" fill="#504883"/>
<path fill-rule="evenodd" clip-rule="evenodd" d="M207.5 223.29C206.279 223.29 205.29 224.279 205.29 225.5C205.29 226.721 206.279 227.71 207.5 227.71C208.721 227.71 209.71 226.721 209.71 225.5C209.71 224.279 208.721 223.29 207.5 223.29ZM202 225.5C202 222.462 204.462 220 207.5 220C210.538 220 213 222.462 213 225.5C213 228.538 210.538 231 207.5 231C204.462 231 202 228.538 202 225.5Z" fill="#504883"/>
<path fill-rule="evenodd" clip-rule="evenodd" d="M225.487 227.488C226.123 226.837 227.155 226.837 227.791 227.488L240.523 240.518C241.159 241.169 241.159 242.225 240.523 242.876C239.886 243.528 238.854 243.528 238.218 242.876L226.639 231.026L199.782 258.512C199.146 259.163 198.114 259.163 197.477 258.512C196.841 257.86 196.841 256.804 197.477 256.153L225.487 227.488Z" fill="#504883"/>
</svg>
