<svg width="60" height="60" viewBox="0 0 60 60" fill="none" xmlns="http://www.w3.org/2000/svg">
<circle cx="30" cy="30" r="30" fill="url(#paint0_linear)"/>
<path d="M37.34 41V36.744H28.924L33.308 32.36C35.772 29.896 36.988 27.528 36.988 25.192C36.988 23.048 36.252 21.32 34.812 20.072C33.372 18.792 31.644 18.152 29.596 18.152C27.964 18.152 26.524 18.568 25.244 19.368C23.9 20.2 22.876 21.384 22.204 22.888L25.916 25.064C26.716 23.304 27.964 22.44 29.66 22.44C30.524 22.44 31.196 22.696 31.74 23.24C32.284 23.784 32.572 24.488 32.572 25.352C32.572 26.536 31.708 28.008 30.012 29.832L22.364 37.704V41H37.34Z" fill="white"/>
<defs>
<linearGradient id="paint0_linear" x1="7.7982" y1="52.9117" x2="51.8977" y2="7.72128" gradientUnits="userSpaceOnUse">
<stop stop-color="#8B83E6"/>
<stop offset="1" stop-color="#F6BAEE"/>
</linearGradient>
</defs>
</svg>
