<svg width="1053" height="438" viewBox="0 0 1053 438" fill="none" xmlns="http://www.w3.org/2000/svg">
<circle cx="583.524" cy="434.24" r="3.52358" transform="rotate(-90 583.524 434.24)" fill="#70C217"/>
<circle cx="583.524" cy="382.561" r="3.52358" transform="rotate(-90 583.524 382.561)" fill="#70C217"/>
<circle cx="583.524" cy="330.882" r="3.52358" transform="rotate(-90 583.524 330.882)" fill="#70C217"/>
<circle cx="635.203" cy="434.24" r="3.52358" transform="rotate(-90 635.203 434.24)" fill="#70C217"/>
<circle cx="635.203" cy="382.561" r="3.52358" transform="rotate(-90 635.203 382.561)" fill="#70C217"/>
<circle cx="635.203" cy="330.882" r="3.52358" transform="rotate(-90 635.203 330.882)" fill="#70C217"/>
<circle cx="686.882" cy="434.24" r="3.52358" transform="rotate(-90 686.882 434.24)" fill="#70C217"/>
<circle cx="686.882" cy="382.561" r="3.52358" transform="rotate(-90 686.882 382.561)" fill="#70C217"/>
<circle cx="686.882" cy="330.882" r="3.52358" transform="rotate(-90 686.882 330.882)" fill="#70C217"/>
<circle cx="738.561" cy="434.24" r="3.52358" transform="rotate(-90 738.561 434.24)" fill="#70C217"/>
<circle cx="738.561" cy="382.561" r="3.52358" transform="rotate(-90 738.561 382.561)" fill="#70C217"/>
<circle cx="738.561" cy="330.882" r="3.52358" transform="rotate(-90 738.561 330.882)" fill="#70C217"/>
<circle cx="790.24" cy="434.24" r="3.52358" transform="rotate(-90 790.24 434.24)" fill="#70C217"/>
<circle cx="790.24" cy="382.561" r="3.52358" transform="rotate(-90 790.24 382.561)" fill="#70C217"/>
<circle cx="790.24" cy="330.882" r="3.52358" transform="rotate(-90 790.24 330.882)" fill="#70C217"/>
<circle cx="841.919" cy="434.24" r="3.52358" transform="rotate(-90 841.919 434.24)" fill="#70C217"/>
<circle cx="841.919" cy="382.561" r="3.52358" transform="rotate(-90 841.919 382.561)" fill="#70C217"/>
<circle cx="841.919" cy="330.882" r="3.52358" transform="rotate(-90 841.919 330.882)" fill="#70C217"/>
<circle cx="893.599" cy="434.24" r="3.52358" transform="rotate(-90 893.599 434.24)" fill="#70C217"/>
<circle cx="893.599" cy="382.561" r="3.52358" transform="rotate(-90 893.599 382.561)" fill="#70C217"/>
<circle cx="893.599" cy="330.882" r="3.52358" transform="rotate(-90 893.599 330.882)" fill="#70C217"/>
<circle cx="893.599" cy="279.203" r="3.52358" transform="rotate(-90 893.599 279.203)" fill="#70C217"/>
<circle cx="893.599" cy="227.524" r="3.52358" transform="rotate(-90 893.599 227.524)" fill="#70C217"/>
<circle cx="945.278" cy="434.24" r="3.52358" transform="rotate(-90 945.278 434.24)" fill="#70C217"/>
<circle cx="945.278" cy="382.561" r="3.52358" transform="rotate(-90 945.278 382.561)" fill="#70C217"/>
<circle cx="945.278" cy="330.882" r="3.52358" transform="rotate(-90 945.278 330.882)" fill="#70C217"/>
<circle cx="945.278" cy="279.203" r="3.52358" transform="rotate(-90 945.278 279.203)" fill="#70C217"/>
<circle cx="945.278" cy="227.524" r="3.52358" transform="rotate(-90 945.278 227.524)" fill="#70C217"/>
<circle cx="996.957" cy="434.24" r="3.52358" transform="rotate(-90 996.957 434.24)" fill="#70C217"/>
<circle cx="996.957" cy="382.561" r="3.52358" transform="rotate(-90 996.957 382.561)" fill="#70C217"/>
<circle cx="996.957" cy="330.882" r="3.52358" transform="rotate(-90 996.957 330.882)" fill="#70C217"/>
<circle cx="996.957" cy="279.203" r="3.52358" transform="rotate(-90 996.957 279.203)" fill="#70C217"/>
<circle cx="996.957" cy="227.524" r="3.52358" transform="rotate(-90 996.957 227.524)" fill="#70C217"/>
<circle cx="1048.64" cy="434.24" r="3.52358" transform="rotate(-90 1048.64 434.24)" fill="#70C217"/>
<circle cx="1048.64" cy="382.561" r="3.52358" transform="rotate(-90 1048.64 382.561)" fill="#70C217"/>
<circle cx="1048.64" cy="330.882" r="3.52358" transform="rotate(-90 1048.64 330.882)" fill="#70C217"/>
<circle cx="1048.64" cy="279.203" r="3.52358" transform="rotate(-90 1048.64 279.203)" fill="#70C217"/>
<circle cx="1048.64" cy="227.524" r="3.52358" transform="rotate(-90 1048.64 227.524)" fill="#70C217"/>
<circle cx="886" cy="131" r="128.5" stroke="#FFBA49" stroke-width="5"/>
<rect y="44" width="864" height="261" rx="24" fill="#9794F2"/>
<circle cx="473" cy="50" r="30" fill="url(#paint0_linear)"/>
<path d="M479.769 42.248V38.6H465.689V42.728H474.457L470.041 48.488L471.737 51.048H472.697C473.817 51.048 474.713 51.336 475.353 51.88C475.961 52.424 476.281 53.16 476.281 54.088C476.281 55.016 475.961 55.784 475.353 56.328C474.713 56.872 473.817 57.128 472.697 57.128C470.649 57.128 469.337 56.264 468.793 54.536L465.017 56.712C465.625 58.216 466.649 59.4 468.025 60.232C469.369 61.032 470.937 61.448 472.697 61.448C474.969 61.448 476.857 60.808 478.361 59.496C479.929 58.184 480.697 56.392 480.697 54.088C480.697 52.52 480.217 51.176 479.289 50.024C478.361 48.904 477.145 48.136 475.577 47.688L479.769 42.248Z" fill="white"/>
<circle cx="739.5" cy="317.5" r="30" stroke="#FFBA49" stroke-width="5"/>
<defs>
<linearGradient id="paint0_linear" x1="450.798" y1="72.9117" x2="494.898" y2="27.7213" gradientUnits="userSpaceOnUse">
<stop stop-color="#8B83E6"/>
<stop offset="1" stop-color="#F6BAEE"/>
</linearGradient>
</defs>
</svg>
