<svg width="120" height="40" viewBox="0 0 120 40" fill="none" xmlns="http://www.w3.org/2000/svg">
<rect width="120" height="40" rx="20" fill="white"/>
<path d="M25.762 24.9874L23.592 21.2914C24.166 21.0254 24.614 20.6474 24.964 20.1294C25.314 19.6114 25.482 19.0374 25.482 18.4354C25.482 17.5394 25.16 16.7694 24.53 16.1394C23.9 15.5094 23.13 15.1874 22.22 15.1874H18.3V24.9874H20.232V21.5854H21.702L23.676 24.9874H25.762ZM22.22 16.9934C22.584 16.9934 22.892 17.1334 23.158 17.4134C23.424 17.6934 23.55 18.0294 23.55 18.4354C23.55 18.8414 23.424 19.1774 23.158 19.4574C22.892 19.7514 22.584 19.8914 22.22 19.8914H20.232V16.9934H22.22ZM28.8316 20.9414H32.5416V19.1214H28.8316V17.0354H32.8916V15.1874H26.8996V24.9874H32.9616V23.1394H28.8316V20.9414ZM42.8738 24.9874L39.4298 15.1874H37.0358L33.6058 24.9874H35.6918L36.2798 23.2234H40.1858L40.7738 24.9874H42.8738ZM38.2398 17.4134L39.5838 21.4174H36.8958L38.2398 17.4134ZM43.8253 15.1874V24.9874H47.7173C49.0613 24.9874 50.1813 24.5114 51.0773 23.5734C51.9873 22.6354 52.4353 21.4734 52.4353 20.0874C52.4353 18.7014 51.9873 17.5394 51.0773 16.6014C50.1813 15.6634 49.0613 15.1874 47.7173 15.1874H43.8253ZM45.7573 23.1394V17.0354H47.7173C48.5713 17.0354 49.2573 17.3154 49.7893 17.8894C50.3213 18.4494 50.5873 19.1774 50.5873 20.0874C50.5873 20.9834 50.3213 21.7254 49.7893 22.2994C49.2573 22.8594 48.5713 23.1394 47.7173 23.1394H45.7573ZM64.9078 15.1874L62.1078 19.8214L59.2938 15.1874H57.3058V24.9874H59.2378V18.6454L61.9958 23.1814H62.2198L64.9778 18.6314V24.9874H66.8958V15.1874H64.9078ZM73.3558 25.1834C74.7698 25.1834 75.9738 24.6934 76.9678 23.7134C77.9618 22.7194 78.4518 21.5154 78.4518 20.0874C78.4518 18.6594 77.9618 17.4554 76.9678 16.4754C75.9738 15.4814 74.7698 14.9914 73.3558 14.9914C71.9418 14.9914 70.7378 15.4814 69.7438 16.4754C68.7638 17.4554 68.2738 18.6594 68.2738 20.0874C68.2738 21.5014 68.7638 22.7194 69.7438 23.7134C70.7378 24.6934 71.9418 25.1834 73.3558 25.1834ZM73.3558 23.2934C72.4458 23.2934 71.7038 22.9994 71.1018 22.3974C70.4998 21.7954 70.1918 21.0254 70.1918 20.0874C70.1918 19.1494 70.4998 18.3794 71.1018 17.7774C71.7038 17.1754 72.4598 16.8674 73.3558 16.8674C74.2518 16.8674 75.0078 17.1754 75.6098 17.7774C76.2118 18.3794 76.5198 19.1494 76.5198 20.0874C76.5198 21.0254 76.2118 21.7954 75.6098 22.3974C75.0078 22.9994 74.2658 23.2934 73.3558 23.2934ZM87.2717 24.9874L85.1017 21.2914C85.6757 21.0254 86.1237 20.6474 86.4737 20.1294C86.8237 19.6114 86.9917 19.0374 86.9917 18.4354C86.9917 17.5394 86.6697 16.7694 86.0397 16.1394C85.4097 15.5094 84.6397 15.1874 83.7297 15.1874H79.8097V24.9874H81.7417V21.5854H83.2117L85.1857 24.9874H87.2717ZM83.7297 16.9934C84.0937 16.9934 84.4017 17.1334 84.6677 17.4134C84.9337 17.6934 85.0597 18.0294 85.0597 18.4354C85.0597 18.8414 84.9337 19.1774 84.6677 19.4574C84.4017 19.7514 84.0937 19.8914 83.7297 19.8914H81.7417V16.9934H83.7297ZM90.3413 20.9414H94.0513V19.1214H90.3413V17.0354H94.4013V15.1874H88.4093V24.9874H94.4713V23.1394H90.3413V20.9414Z" fill="#9794F2"/>
</svg>
